<svg id="Lag_1" data-name="Lag 1" xmlns="http://www.w3.org/2000/svg" viewBox="0 0 1100.2 934.99"><defs><style>.cls-1{fill:#c11f3a;}.cls-1,.cls-2,.cls-3,.cls-4{fill-rule:evenodd;}.cls-2{fill:#114b5e;}.cls-3{fill:#efefef;}.cls-4,.cls-5{fill:#3b3d3f;}</style></defs><title>Grafik</title><path class="cls-1" d="M284.45,217.44h83.79V530.58H284.45Z" transform="translate(-54.9 -74.81)"/><path class="cls-1" d="M54.9,217.87h84V531h-84Z" transform="translate(-54.9 -74.81)"/><path class="cls-1" d="M62.88,283.56,123,223.06l245.29,247-60.07,60.49Z" transform="translate(-54.9 -74.81)"/><path class="cls-2" d="M313.39,639.43h83.79V997.06H313.39Z" transform="translate(-54.9 -74.81)"/><path class="cls-2" d="M466.14,808.18l59.37,59.37L396.18,996.88,336.81,937.5Z" transform="translate(-54.9 -74.81)"/><path class="cls-2" d="M574.8,817,515.55,876.2,338.09,698.75l59.26-59.25Z" transform="translate(-54.9 -74.81)"/><path class="cls-2" d="M1095.7,732.3l59.24,59.24-152.39,152.4L943.3,884.69Z" transform="translate(-54.9 -74.81)"/><path class="cls-2" d="M850.27,791.54l59.24-59.25,152.39,152.4-59.24,59.24Z" transform="translate(-54.9 -74.81)"/><path class="cls-3" d="M1071.31,1009.8V730.34h83.79V1009.8Z" transform="translate(-54.9 -74.81)"/><path class="cls-3" d="M851.47,1009.8V730.34h83.78V1009.8Z" transform="translate(-54.9 -74.81)"/><path class="cls-4" d="M840.76,597.53V325h83.8V597.53Z" transform="translate(-54.9 -74.81)"/><path class="cls-1" d="M956.09,411.8V325h83.8V411.8Z" transform="translate(-54.9 -74.81)"/><path class="cls-3" d="M418.05,282.89H731.22v84H418.05Z" transform="translate(-54.9 -74.81)"/><path class="cls-5" d="M795,74.81a100.1,100.1,0,1,0,100.09,100.1A100.1,100.1,0,0,0,795,74.81Zm0,153.47a53.38,53.38,0,1,1,53.38-53.37A53.38,53.38,0,0,1,795,228.28Z" transform="translate(-54.9 -74.81)"/><path class="cls-5" d="M704.66,701.9A117,117,0,0,1,663.82,472L650.33,396.1c-87,19.17-152.05,96.71-152.05,189.45,0,107.14,86.86,194,194,194a195.65,195.65,0,0,0,25.88-1.71Z" transform="translate(-54.9 -74.81)"/></svg>