<svg id="Lag_1" data-name="Lag 1" xmlns="http://www.w3.org/2000/svg" viewBox="0 0 813.54 517.64"><defs><style>.cls-1{fill:#fff;}.cls-2{fill:#1d1d1b;}</style></defs><title>NORDICNegativ</title><rect class="cls-1" x="255.61" y="260.72" width="557.92" height="256.92"/><rect class="cls-1" width="670.19" height="274.77"/><path class="cls-2" d="M104.57,270.46,77.82,181v88.25H36.08V83.55h46l24.61,82.61V83.55h41.74V270.46Z" transform="translate(-14.18 -38.82)"/><path class="cls-2" d="M154.87,176.26c0-68.94,25.16-96.87,58.6-96.87,33.18,0,58.06,23.48,58.06,97.17,0,68.94-25.15,96.87-58.59,96.87C179.76,273.43,154.87,250,154.87,176.26Zm70.64,2.08c0-46.65-3.48-55.27-11.77-55.27s-12.84,6-12.84,51.41c0,46.65,3.74,55.27,12,55.27S225.51,223.81,225.51,178.34Z" transform="translate(-14.18 -38.82)"/><path class="cls-2" d="M344.58,269.27,327.19,213.7l-4.29.6v55H278V83.55h58.87c32.37,0,49.5,23.18,49.5,61.21,0,26.45-6.69,44.58-19.8,54.38l25.42,70.13Zm-15.25-94.49c7.76-1.19,11.5-7.73,11.5-25.86,0-18.42-4.81-24.06-13.11-24.06H322.9v50.81Z" transform="translate(-14.18 -38.82)"/><path class="cls-2" d="M395.15,83.55h49.23c43.34,0,62.61,32.09,62.61,91.52,0,61.51-20.87,94.2-65.82,94.2h-46ZM442.77,228C457,228,461,215.49,461,176.86s-3.48-52-18.46-52H440.1V228Z" transform="translate(-14.18 -38.82)"/><path class="cls-2" d="M513.41,269.27V83.55h45V269.27Z" transform="translate(-14.18 -38.82)"/><path class="cls-2" d="M666.46,259.76c-11.24,8.32-24.89,13.67-38.53,13.67-37.19,0-63.15-23.47-63.15-97.17,0-68.94,25.15-96.87,62.88-96.87,14.72,0,27.56,5,38.8,12.78L655,134.66c-6.42-6.24-13.65-11.29-21.67-11.29-15.25,0-22.74,14.56-22.74,52,0,38.93,7.49,54.08,22.47,54.08,8.83,0,15.25-4.16,22.48-10.7Z" transform="translate(-14.18 -38.82)"/><path class="cls-2" d="M361.46,521.83,344,466.26l-4.29.59v55H294.65V336.11h59c32.47,0,49.64,23.17,49.64,61.21,0,26.45-6.71,44.57-19.85,54.38L409,521.83Zm-15.29-94.5c7.78-1.19,11.54-7.72,11.54-25.85,0-18.42-4.83-24.07-13.15-24.07h-4.83v50.81Z" transform="translate(-14.18 -38.82)"/><path class="cls-2" d="M406.27,428.82C406.27,359.88,431.5,332,465,332c33.27,0,58.23,23.47,58.23,97.16C523.26,498.05,498,526,464.5,526,431.23,526,406.27,502.51,406.27,428.82Zm70.84,2.08c0-46.65-3.49-55.27-11.81-55.27s-12.88,5.94-12.88,51.4c0,46.66,3.76,55.28,12.08,55.28S477.11,476.36,477.11,430.9Z" transform="translate(-14.18 -38.82)"/><path class="cls-2" d="M527.82,428.82c0-68.94,25.22-96.87,58.76-96.87,33.27,0,58.22,23.47,58.22,97.16C644.8,498.05,619.58,526,586,526,552.77,526,527.82,502.51,527.82,428.82Zm70.83,2.08c0-46.65-3.49-55.27-11.81-55.27S574,381.57,574,427c0,46.66,3.76,55.28,12.08,55.28S598.65,476.36,598.65,430.9Z" transform="translate(-14.18 -38.82)"/><path class="cls-2" d="M766.88,521.83V391.67l-15,126h-44.8l-14.76-126V521.83H649.63l4.56-185.72h65.74l9.65,115,9.66-115H805l4.56,185.72Z" transform="translate(-14.18 -38.82)"/></svg>